<svg width="24" height="24" viewBox="0 0 24 24" fill="none" xmlns="http://www.w3.org/2000/svg">
<g id="Icon / Instagram / W">
<path id="Vector" d="M12.0003 9.23082C11.2659 9.23082 10.5615 9.52258 10.0422 10.0419C9.52282 10.5612 9.23107 11.2656 9.23107 12.0001C9.23107 12.7345 9.52282 13.4389 10.0422 13.9582C10.5615 14.4775 11.2659 14.7693 12.0003 14.7693C12.7347 14.7693 13.4391 14.4775 13.9584 13.9582C14.4778 13.4389 14.7695 12.7345 14.7695 12.0001C14.7695 11.2656 14.4778 10.5612 13.9584 10.0419C13.4391 9.52258 12.7347 9.23082 12.0003 9.23082ZM12.0003 7.38467C13.2244 7.38467 14.3983 7.87093 15.2639 8.73649C16.1294 9.60204 16.6157 10.776 16.6157 12.0001C16.6157 13.2241 16.1294 14.3981 15.2639 15.2636C14.3983 16.1292 13.2244 16.6154 12.0003 16.6154C10.7762 16.6154 9.60228 16.1292 8.73673 15.2636C7.87118 14.3981 7.38491 13.2241 7.38491 12.0001C7.38491 10.776 7.87118 9.60204 8.73673 8.73649C9.60228 7.87093 10.7762 7.38467 12.0003 7.38467ZM18.0003 7.1539C18.0003 7.45992 17.8787 7.75341 17.6623 7.96979C17.446 8.18618 17.1525 8.30775 16.8465 8.30775C16.5404 8.30775 16.2469 8.18618 16.0306 7.96979C15.8142 7.75341 15.6926 7.45992 15.6926 7.1539C15.6926 6.84788 15.8142 6.5544 16.0306 6.33801C16.2469 6.12162 16.5404 6.00006 16.8465 6.00006C17.1525 6.00006 17.446 6.12162 17.6623 6.33801C17.8787 6.5544 18.0003 6.84788 18.0003 7.1539ZM12.0003 4.61544C9.71661 4.61544 9.34368 4.6219 8.28122 4.66898C7.55753 4.70313 7.07199 4.80006 6.62153 4.97544C6.22091 5.13052 5.93199 5.31606 5.62461 5.62436C5.33569 5.9035 5.11355 6.24429 4.97476 6.62129C4.79938 7.07359 4.70245 7.55821 4.66922 8.28098C4.62122 9.30005 4.61568 9.65636 4.61568 12.0001C4.61568 14.2837 4.62215 14.6567 4.66922 15.7191C4.70338 16.4419 4.8003 16.9284 4.97476 17.3779C5.13168 17.7794 5.3163 18.0684 5.62276 18.3748C5.93384 18.685 6.22276 18.8705 6.61968 19.0237C7.07568 19.2001 7.56122 19.2979 8.28122 19.3311C9.3003 19.3791 9.65661 19.3847 12.0003 19.3847C14.284 19.3847 14.6569 19.3782 15.7194 19.3311C16.4412 19.297 16.9277 19.2001 17.3781 19.0256C17.7778 18.8696 18.0686 18.6841 18.3751 18.3776C18.6861 18.0665 18.8717 17.7776 19.0249 17.3807C19.2003 16.9256 19.2981 16.4391 19.3314 15.7191C19.3794 14.7001 19.3849 14.3437 19.3849 12.0001C19.3849 9.71636 19.3785 9.34344 19.3314 8.28098C19.2972 7.55913 19.2003 7.07175 19.0249 6.62129C18.8858 6.24467 18.6641 5.90402 18.376 5.62436C18.097 5.3353 17.7562 5.11313 17.3791 4.97452C16.9268 4.79913 16.4412 4.70221 15.7194 4.66898C14.7003 4.62098 14.344 4.61544 12.0003 4.61544ZM12.0003 2.76929C14.5083 2.76929 14.8212 2.77852 15.8052 2.82467C16.7883 2.87083 17.4575 3.02498 18.0464 3.2539C18.6557 3.48836 19.1689 3.8059 19.6821 4.31821C20.1515 4.77965 20.5147 5.33783 20.7465 5.9539C20.9745 6.5419 21.1295 7.21206 21.1757 8.19513C21.2191 9.17913 21.2311 9.49205 21.2311 12.0001C21.2311 14.5081 21.2218 14.821 21.1757 15.805C21.1295 16.7881 20.9745 17.4573 20.7465 18.0462C20.5154 18.6626 20.1521 19.2209 19.6821 19.6819C19.2206 20.1511 18.6624 20.5143 18.0464 20.7462C17.4585 20.9742 16.7883 21.1293 15.8052 21.1754C14.8212 21.2188 14.5083 21.2308 12.0003 21.2308C9.4923 21.2308 9.17938 21.2216 8.19538 21.1754C7.2123 21.1293 6.54307 20.9742 5.95415 20.7462C5.33783 20.515 4.77956 20.1517 4.31845 19.6819C3.84898 19.2205 3.48578 18.6623 3.25415 18.0462C3.02522 17.4582 2.87107 16.7881 2.82492 15.805C2.78153 14.821 2.76953 14.5081 2.76953 12.0001C2.76953 9.49205 2.77876 9.17913 2.82492 8.19513C2.87107 7.21113 3.02522 6.54282 3.25415 5.9539C3.48513 5.33745 3.84843 4.77912 4.31845 4.31821C4.77969 3.84858 5.33793 3.48534 5.95415 3.2539C6.54307 3.02498 7.21138 2.87083 8.19538 2.82467C9.17938 2.78129 9.4923 2.76929 12.0003 2.76929Z" fill="#0168FC"/>
</g>
</svg>
