<svg width="24" height="24" viewBox="0 0 24 24" fill="none" xmlns="http://www.w3.org/2000/svg">
<g id="Icon / Linkedin / W">
<path id="Vector" d="M6.93909 4.99978C6.93882 5.53021 6.72785 6.03882 6.35259 6.4137C5.97733 6.78859 5.46852 6.99905 4.93809 6.99878C4.40765 6.99852 3.89905 6.78755 3.52417 6.41229C3.14928 6.03703 2.93882 5.52821 2.93909 4.99778C2.93935 4.46735 3.15032 3.95874 3.52558 3.58386C3.90084 3.20897 4.40965 2.99851 4.94009 2.99878C5.47052 2.99904 5.97912 3.21001 6.35401 3.58527C6.72889 3.96053 6.93935 4.46935 6.93909 4.99978ZM6.99909 8.47978H2.99909V20.9998H6.99909V8.47978ZM13.3191 8.47978H9.33909V20.9998H13.2791V14.4298C13.2791 10.7698 18.0491 10.4298 18.0491 14.4298V20.9998H21.9991V13.0698C21.9991 6.89978 14.9391 7.12978 13.2791 10.1598L13.3191 8.47978Z" fill="#0168FC"/>
</g>
</svg>
